<svg width="45" height="55" viewBox="0 0 45 55" fill="none" xmlns="http://www.w3.org/2000/svg">
<path d="M43.128 33.6163C42.4217 32.8291 41.8617 31.8929 41.4805 30.8617C41.0992 29.8305 40.9042 28.7249 40.9068 27.6088V20.6207C40.9068 15.1517 38.9674 9.90679 35.5153 6.03966C32.0632 2.17253 27.381 0 22.499 0C17.6169 0 12.9348 2.17253 9.48266 6.03966C6.03052 9.90679 4.09113 15.1517 4.09113 20.6207V27.6088C4.09373 28.7249 3.89876 29.8305 3.5175 30.8617C3.13623 31.8929 2.57624 32.8291 1.86991 33.6163C0.977074 34.6164 0.369032 35.8906 0.122686 37.2778C-0.123661 38.665 0.0027529 40.1028 0.48594 41.4095C0.969128 42.7162 1.78738 43.8331 2.83722 44.6188C3.88706 45.4045 5.12133 45.8239 6.38393 45.8238H12.4769C12.9464 48.4135 14.2006 50.7417 16.0271 52.4141C17.8536 54.0864 20.14 55 22.499 55C24.858 55 27.1444 54.0864 28.9709 52.4141C30.7974 50.7417 32.0516 48.4135 32.521 45.8238H38.6161C39.8787 45.8239 41.1129 45.4045 42.1628 44.6188C43.2126 43.8331 44.0309 42.7162 44.5141 41.4095C44.9972 40.1028 45.1237 38.665 44.8773 37.2778C44.631 35.8906 44.0209 34.6164 43.128 33.6163ZM22.499 50.4061C21.2344 50.4003 20.0024 49.9569 18.9714 49.1366C17.9404 48.3164 17.1609 47.1593 16.7394 45.8238H28.2586C27.8371 47.1593 27.0575 48.3164 26.0265 49.1366C24.9956 49.9569 23.7635 50.4003 22.499 50.4061ZM38.614 41.2414H6.38393C5.93025 41.2417 5.4867 41.0912 5.1094 40.809C4.7321 40.5268 4.43802 40.1256 4.26437 39.6561C4.09072 39.1866 4.04531 38.6699 4.13389 38.1715C4.22247 37.673 4.44106 37.2153 4.76199 36.8561C5.84938 35.6444 6.71151 34.2033 7.2985 32.616C7.8855 31.0288 8.18571 29.3269 8.18176 27.6088V20.6207C8.18176 16.3671 9.69018 12.2877 12.3752 9.27989C15.0602 6.27212 18.7018 4.58238 22.499 4.58238C26.2961 4.58238 29.9378 6.27212 32.6228 9.27989C35.3078 12.2877 36.8162 16.3671 36.8162 20.6207V27.6088C36.8123 29.3269 37.1125 31.0288 37.6995 32.616C38.2865 34.2033 39.1486 35.6444 40.236 36.8561C40.5569 37.2153 40.7755 37.673 40.8641 38.1715C40.9526 38.6699 40.9072 39.1866 40.7336 39.6561C40.5599 40.1256 40.2659 40.5268 39.8886 40.809C39.5113 41.0912 39.0677 41.2417 38.614 41.2414Z" fill="black"/>
</svg>
