<svg width="45" height="53" viewBox="0 0 45 53" fill="none" xmlns="http://www.w3.org/2000/svg">
<path d="M44.5405 27.8439L38.111 35.4154L35.8285 32.7275L39.5255 28.3929H30.5402C29.2613 28.3929 28.0348 27.7946 27.1305 26.7296C26.2261 25.6647 25.7181 24.2203 25.7181 22.7143V5.67857C25.7181 5.17655 25.5487 4.6951 25.2473 4.34012C24.9459 3.98514 24.537 3.78571 24.1107 3.78571H4.82214C4.39584 3.78571 3.98699 3.98514 3.68555 4.34012C3.38411 4.6951 3.21476 5.17655 3.21476 5.67857V47.3214C3.21476 47.8234 3.38411 48.3049 3.68555 48.6599C3.98699 49.0149 4.39584 49.2143 4.82214 49.2143H24.1107C24.537 49.2143 24.9459 49.0149 25.2473 48.6599C25.5487 48.3049 25.7181 47.8234 25.7181 47.3214V34.0714H28.9329V47.3214C28.9329 48.8275 28.4248 50.2718 27.5205 51.3368C26.6162 52.4017 25.3896 53 24.1107 53H4.82214C3.54323 53 2.3167 52.4017 1.41237 51.3368C0.508046 50.2718 0 48.8275 0 47.3214V5.67857C0 4.17252 0.508046 2.72815 1.41237 1.66322C2.3167 0.598277 3.54323 0 4.82214 0H24.1107C25.3896 0 26.6162 0.598277 27.5205 1.66322C28.4248 2.72815 28.9329 4.17252 28.9329 5.67857V22.7143C28.9329 23.2163 29.1022 23.6978 29.4036 24.0527C29.7051 24.4077 30.1139 24.6071 30.5402 24.6071H39.5416L35.9089 20.2914L38.1914 17.6225L44.5405 25.1939C44.835 25.5478 45 26.0235 45 26.5189C45 27.0144 44.835 27.4901 44.5405 27.8439Z" fill="black"/>
</svg>
